<svg width="301" height="266" viewBox="0 0 301 266" fill="none" xmlns="http://www.w3.org/2000/svg">
<path d="M221.359 91.7395C221.359 129.421 190.812 159.967 153.131 159.967C115.45 159.967 84.9034 129.421 84.9034 91.7395C84.9034 72.7982 88.0569 55.7602 98.1152 43.4582C108.156 31.1772 125.168 23.5118 153.131 23.512C181.094 23.5121 198.106 31.1776 208.147 43.4584C218.205 55.7604 221.359 72.7982 221.359 91.7395Z" stroke="#E8E1E1"/>
<path d="M184.897 37.039C184.897 56.9628 170.621 73.0067 153.137 73.0067C135.652 73.0067 121.377 56.9628 121.377 37.039C121.377 17.1152 135.652 1.07129 153.137 1.07129C170.621 1.07129 184.897 17.1152 184.897 37.039Z" stroke="#E8E1E1"/>
<path d="M152.599 218.062C119.966 199.221 108.785 157.494 127.625 124.861C146.466 92.2284 188.193 81.0476 220.826 99.8881C237.23 109.359 250.408 120.609 256.033 135.471C261.648 150.307 259.781 168.872 245.799 193.089C231.817 217.305 216.673 228.205 201.017 230.76C185.334 233.32 169.002 227.532 152.599 218.062Z" stroke="#E8E1E1"/>
<path d="M218.204 213.83C200.949 203.868 194.192 183.483 202.935 168.341C211.677 153.199 232.709 148.858 249.964 158.82C267.218 168.782 273.975 189.167 265.233 204.309C256.49 219.451 235.458 223.792 218.204 213.83Z" stroke="#E8E1E1"/>
<path d="M79.4631 101.29C112.096 82.4497 153.823 93.6305 172.664 126.263C191.504 158.896 180.323 200.623 147.691 219.464C131.287 228.934 114.955 234.722 99.2718 232.163C83.6157 229.607 68.4715 218.708 54.4901 194.491C40.5087 170.274 38.6413 151.709 44.2563 136.873C49.881 122.011 63.0594 110.761 79.4631 101.29Z" stroke="#E8E1E1"/>
<path d="M50.3208 160.223C67.5753 150.261 88.6074 154.602 97.3497 169.744C106.092 184.886 99.3352 205.271 82.0807 215.232C64.8262 225.194 43.7941 220.854 35.0518 205.711C26.3095 190.569 33.0663 170.185 50.3208 160.223Z" stroke="#E8E1E1"/>
<circle cx="152.439" cy="134.52" r="53.5002" fill="#F7F4F0" stroke="#E8E1E1"/>
</svg>
