<svg width="415" height="415" viewBox="0 0 415 415" fill="none" xmlns="http://www.w3.org/2000/svg">
<rect x="0.5" y="0.5" width="413.286" height="413.286" rx="59.5" stroke="#E8E1E1"/>
<path d="M278.359 165.74C278.359 203.421 247.812 233.967 210.131 233.967C172.45 233.967 141.903 203.421 141.903 165.74C141.903 146.798 145.057 129.76 155.115 117.458C165.156 105.177 182.168 97.5118 210.131 97.512C238.094 97.5121 255.106 105.178 265.147 117.458C275.205 129.76 278.359 146.798 278.359 165.74Z" stroke="#E8E1E1"/>
<path d="M241.897 111.039C241.897 130.963 227.621 147.007 210.137 147.007C192.652 147.007 178.377 130.963 178.377 111.039C178.377 91.1152 192.652 75.0713 210.137 75.0713C227.621 75.0713 241.897 91.1152 241.897 111.039Z" stroke="#E8E1E1"/>
<path d="M209.599 292.062C176.966 273.221 165.785 231.494 184.625 198.861C203.466 166.228 245.193 155.048 277.826 173.888C294.23 183.359 307.408 194.609 313.033 209.471C318.648 224.307 316.781 242.872 302.799 267.089C288.817 291.305 273.673 302.205 258.017 304.76C242.334 307.32 226.002 301.532 209.599 292.062Z" stroke="#E8E1E1"/>
<path d="M275.204 287.83C257.949 277.868 251.192 257.483 259.935 242.341C268.677 227.199 289.709 222.858 306.964 232.82C324.218 242.782 330.975 263.167 322.233 278.309C313.49 293.451 292.458 297.792 275.204 287.83Z" stroke="#E8E1E1"/>
<path d="M136.463 175.29C169.096 156.45 210.823 167.631 229.664 200.263C248.504 232.896 237.323 274.623 204.691 293.464C188.287 302.934 171.955 308.722 156.272 306.163C140.616 303.607 125.471 292.708 111.49 268.491C97.5087 244.274 95.6413 225.709 101.256 210.873C106.881 196.011 120.059 184.761 136.463 175.29Z" stroke="#E8E1E1"/>
<path d="M107.321 234.223C124.575 224.261 145.607 228.602 154.35 243.744C163.092 258.886 156.335 279.271 139.081 289.232C121.826 299.194 100.794 294.854 92.0518 279.711C83.3095 264.569 90.0663 244.185 107.321 234.223Z" stroke="#E8E1E1"/>
<circle cx="209.439" cy="208.52" r="53.5002" fill="#F7F4F0" stroke="#E8E1E1"/>
</svg>
