<svg width="1398" height="415" viewBox="0 0 1398 415" fill="none" xmlns="http://www.w3.org/2000/svg">
<path d="M588 0.5H810C826.81 0.5 839.387 0.500389 849.367 1.31579C859.341 2.13072 866.677 3.75721 873.012 6.98511C884.208 12.6896 893.31 21.7919 899.015 32.9876C902.243 39.3227 903.869 46.6586 904.684 56.6328C905.5 66.6129 905.5 79.1902 905.5 96V318C905.5 334.81 905.5 347.387 904.684 357.367C903.869 367.341 902.243 374.677 899.015 381.012C893.31 392.208 884.208 401.31 873.012 407.015C866.677 410.243 859.341 411.869 849.367 412.684C839.387 413.5 826.81 413.5 810 413.5H588C571.19 413.5 558.613 413.5 548.633 412.684C538.659 411.869 531.323 410.243 524.988 407.015C513.792 401.31 504.69 392.208 498.985 381.012C495.757 374.677 494.131 367.341 493.316 357.367C492.5 347.387 492.5 334.81 492.5 318V96C492.5 79.1902 492.5 66.6129 493.316 56.6328C494.131 46.6586 495.757 39.3227 498.985 32.9876C504.69 21.7919 513.792 12.6896 524.988 6.98511C531.323 3.75721 538.659 2.13072 548.633 1.31579C558.613 0.500389 571.19 0.5 588 0.5Z" stroke="#E8E1E1"/>
<rect x="983.5" y="0.5" width="413.286" height="413.286" rx="59.5" stroke="#E8E1E1"/>
<path d="M1261.36 165.74C1261.36 203.421 1230.81 233.967 1193.13 233.967C1155.45 233.967 1124.9 203.421 1124.9 165.74C1124.9 146.798 1128.06 129.76 1138.12 117.458C1148.16 105.177 1165.17 97.5118 1193.13 97.512C1221.09 97.5121 1238.11 105.178 1248.15 117.458C1258.2 129.76 1261.36 146.798 1261.36 165.74Z" stroke="#E8E1E1"/>
<path d="M1224.9 111.039C1224.9 130.963 1210.62 147.007 1193.14 147.007C1175.65 147.007 1161.38 130.963 1161.38 111.039C1161.38 91.1152 1175.65 75.0713 1193.14 75.0713C1210.62 75.0713 1224.9 91.1152 1224.9 111.039Z" stroke="#E8E1E1"/>
<path d="M1192.6 292.062C1159.97 273.221 1148.78 231.494 1167.63 198.861C1186.47 166.228 1228.19 155.048 1260.83 173.888C1277.23 183.359 1290.41 194.609 1296.03 209.471C1301.65 224.307 1299.78 242.872 1285.8 267.089C1271.82 291.305 1256.67 302.205 1241.02 304.76C1225.33 307.32 1209 301.532 1192.6 292.062Z" stroke="#E8E1E1"/>
<path d="M1258.2 287.83C1240.95 277.868 1234.19 257.483 1242.93 242.341C1251.68 227.199 1272.71 222.858 1289.96 232.82C1307.22 242.782 1313.97 263.167 1305.23 278.309C1296.49 293.451 1275.46 297.792 1258.2 287.83Z" stroke="#E8E1E1"/>
<path d="M1119.46 175.29C1152.1 156.45 1193.82 167.631 1212.66 200.263C1231.5 232.896 1220.32 274.623 1187.69 293.464C1171.29 302.934 1154.95 308.722 1139.27 306.163C1123.62 303.607 1108.47 292.708 1094.49 268.491C1080.51 244.274 1078.64 225.709 1084.26 210.873C1089.88 196.011 1103.06 184.761 1119.46 175.29Z" stroke="#E8E1E1"/>
<path d="M1090.32 234.223C1107.58 224.261 1128.61 228.602 1137.35 243.744C1146.09 258.886 1139.34 279.271 1122.08 289.232C1104.83 299.194 1083.79 294.854 1075.05 279.711C1066.31 264.569 1073.07 244.185 1090.32 234.223Z" stroke="#E8E1E1"/>
<circle cx="1192.44" cy="208.52" r="53.5002" fill="#F7F4F0" stroke="#E8E1E1"/>
<rect x="0.5" y="0.5" width="413.286" height="413.286" rx="59.5" stroke="#E8E1E1"/>
<path d="M278.359 165.74C278.359 203.421 247.812 233.967 210.131 233.967C172.45 233.967 141.903 203.421 141.903 165.74C141.903 146.798 145.057 129.76 155.115 117.458C165.156 105.177 182.168 97.5118 210.131 97.512C238.094 97.5121 255.106 105.178 265.147 117.458C275.205 129.76 278.359 146.798 278.359 165.74Z" stroke="#E8E1E1"/>
<path d="M241.897 111.039C241.897 130.963 227.621 147.007 210.137 147.007C192.652 147.007 178.377 130.963 178.377 111.039C178.377 91.1152 192.652 75.0713 210.137 75.0713C227.621 75.0713 241.897 91.1152 241.897 111.039Z" stroke="#E8E1E1"/>
<path d="M209.598 292.062C176.966 273.221 165.785 231.494 184.625 198.861C203.466 166.228 245.193 155.048 277.826 173.888C294.229 183.359 307.408 194.609 313.033 209.471C318.648 224.307 316.781 242.872 302.799 267.089C288.817 291.305 273.673 302.205 258.017 304.76C242.334 307.32 226.002 301.532 209.598 292.062Z" stroke="#E8E1E1"/>
<path d="M275.203 287.83C257.949 277.868 251.192 257.483 259.934 242.341C268.677 227.199 289.709 222.858 306.963 232.82C324.218 242.782 330.975 263.167 322.232 278.309C313.49 293.451 292.458 297.792 275.203 287.83Z" stroke="#E8E1E1"/>
<path d="M136.463 175.29C169.096 156.45 210.823 167.631 229.664 200.263C248.504 232.896 237.323 274.623 204.691 293.464C188.287 302.934 171.955 308.722 156.272 306.163C140.616 303.607 125.471 292.708 111.49 268.491C97.5087 244.274 95.6413 225.709 101.256 210.873C106.881 196.011 120.059 184.761 136.463 175.29Z" stroke="#E8E1E1"/>
<path d="M107.321 234.223C124.575 224.261 145.607 228.602 154.35 243.744C163.092 258.886 156.335 279.271 139.081 289.232C121.826 299.194 100.794 294.854 92.0518 279.711C83.3095 264.569 90.0663 244.185 107.321 234.223Z" stroke="#E8E1E1"/>
<circle cx="209.439" cy="208.52" r="53.5002" fill="#F7F4F0" stroke="#E8E1E1"/>
</svg>
