<svg xmlns="http://www.w3.org/2000/svg" fill="none" viewBox="0 0 161 48"><path fill="#000" d="M154.375 47.5H5.9375C2.6125 47.5 0 44.7688 0 41.5625V5.9375C0 2.6125 2.73125 0 5.9375 0H154.375c3.325 0 5.937 2.73125 5.937 5.9375v35.625c0 3.325-2.612 5.9375-5.937 5.9375Z"/><path fill="#fff" d="M36.5794 24.1069c0-3.325 2.7313-4.8687 2.85-4.9875-1.5437-2.2562-3.9187-2.4937-4.75-2.6125-2.0187-.2375-3.9187 1.1875-4.9875 1.1875-1.0687 0-2.6125-1.1875-4.275-1.1875-2.1375 0-4.1562 1.3063-5.3437 3.2063-2.2563 3.9187-.5938 9.8562 1.6625 13.0625 1.0687 1.5437 2.375 3.325 4.0375 3.325 1.6625-.1188 2.2562-1.0688 4.275-1.0688 2.0187 0 2.4937 1.0688 4.275 1.0688 1.7812 0 2.85-1.5438 3.9187-3.2063 1.3063-1.7812 1.7813-3.5625 1.7813-3.6812 0 .1187-3.4438-1.1875-3.4438-5.1063ZM33.2526 14.4883c.8312-1.0688 1.5437-2.6125 1.3062-4.1563-1.3062 0-2.85.8313-3.8 2.0188-.8312.95-1.5437 2.4937-1.3062 4.0375 1.425 0 2.9687-.8313 3.8-1.9ZM57.3602 32.1836h-5.5813l-1.3062 4.0375h-2.375l5.3437-14.725h2.375l5.3438 14.725h-2.375l-1.425-4.0375Zm-4.9875-1.7813h4.5125l-2.2563-6.5312h-.1187l-2.1375 6.5312ZM72.6797 30.8771c0 3.325-1.7813 5.4625-4.5125 5.4625-1.5438 0-2.7313-.7125-3.325-1.9v5.3438h-2.2563v-14.25h2.1375v1.7812c.5938-1.1875 1.9-1.9 3.4438-1.9 2.6125-.1187 4.5125 2.1375 4.5125 5.4625Zm-2.375 0c0-2.1375-1.0688-3.5625-2.85-3.5625-1.6625 0-2.85 1.425-2.85 3.5625s1.1875 3.5625 2.85 3.5625c1.7812 0 2.85-1.425 2.85-3.5625ZM84.4336 30.8771c0 3.325-1.7813 5.4625-4.5125 5.4625-1.5438 0-2.7313-.7125-3.325-1.9v5.3438h-2.2563v-14.25h2.1375v1.7812c.5938-1.1875 1.9-1.9 3.4438-1.9 2.7312-.1187 4.5125 2.1375 4.5125 5.4625Zm-2.2563 0c0-2.1375-1.0687-3.5625-2.85-3.5625-1.6625 0-2.85 1.425-2.85 3.5625s1.1875 3.5625 2.85 3.5625c1.7813 0 2.85-1.425 2.85-3.5625ZM92.2727 32.0641c.1187 1.425 1.5437 2.375 3.5625 2.375 1.9 0 3.2062-.95 3.2062-2.2563 0-1.1875-.8312-1.7812-2.7312-2.2562l-1.9-.475c-2.7313-.7125-3.9188-1.9-3.9188-3.9188 0-2.4937 2.2563-4.275 5.3438-4.275s5.2248 1.7813 5.3438 4.275h-2.2563c-.1188-1.425-1.3063-2.375-3.0875-2.375-1.7813 0-2.9688.95-2.9688 2.2563 0 1.0687.8313 1.6625 2.7313 2.1375l1.6625.3562c2.9688.7125 4.2748 1.9 4.2748 4.0375 0 2.7313-2.2561 4.5125-5.6998 4.5125-3.325 0-5.4625-1.6625-5.5813-4.3937h2.0188ZM106.048 22.9219v2.4937h2.019v1.7813h-2.019v5.9375c0 .95.357 1.3062 1.307 1.3062h.712v1.7813c-.237.1187-.712.1187-1.187.1187-2.138 0-2.969-.8312-2.969-2.85v-6.175h-1.544v-1.7812h1.544v-2.4938h2.137v-.1187ZM109.371 30.8766c0-3.325 2.019-5.4625 5.106-5.4625 3.088 0 5.107 2.1375 5.107 5.4625 0 3.4437-2.019 5.4625-5.107 5.4625-3.206 0-5.106-2.1375-5.106-5.4625Zm7.956 0c0-2.375-1.068-3.6813-2.85-3.6813-1.781 0-2.85 1.3063-2.85 3.6813s1.069 3.6812 2.85 3.6812c1.782 0 2.85-1.425 2.85-3.6812ZM121.367 25.4141h2.138v1.9c.356-1.1875 1.306-1.9 2.612-1.9.356 0 .594 0 .713.1187v2.0188c-.119-.1188-.594-.1188-.95-.1188-1.425 0-2.257.95-2.257 2.4938v6.4125h-2.256v-10.925ZM137.042 33.0156c-.356 1.9-2.256 3.325-4.631 3.325-3.088 0-5.106-2.1375-5.106-5.4625s1.9-5.5812 4.987-5.5812c2.969 0 4.869 2.0187 4.869 5.3437v.7125h-7.6v.1188c0 1.7812 1.187 3.0875 2.85 3.0875 1.187 0 2.137-.5938 2.494-1.5438h2.137Zm-7.481-3.2062h5.344c0-1.6625-1.069-2.7313-2.613-2.7313s-2.612 1.1875-2.731 2.7313ZM52.0148 10.332c2.1375 0 3.325 1.3063 3.325 3.5625 0 2.2563-1.1875 3.5625-3.325 3.5625h-2.6125v-7.125h2.6125Zm-1.425 6.175h1.3063c1.425 0 2.375-.95 2.375-2.4937 0-1.5438-.8313-2.4938-2.375-2.4938h-1.3063v4.9875ZM56.6445 14.7273c0-1.7812.95-2.7312 2.4938-2.7312 1.5437 0 2.4937 1.0687 2.4937 2.7312 0 1.7813-.95 2.7313-2.4937 2.7313-1.5438.1187-2.4938-.95-2.4938-2.7313Zm3.9188 0c0-1.1875-.475-1.7812-1.425-1.7812-.95 0-1.425.7125-1.425 1.7812 0 1.1875.475 1.9 1.425 1.9.95 0 1.425-.7125 1.425-1.9ZM68.4008 17.457H67.332l-1.0687-3.9187h-.1188l-1.0687 3.9187H64.007l-1.425-5.3437h1.0688l.95 4.0375h.1187l1.0688-4.0375h1.0687l1.0688 4.0375h.1187l.95-4.0375h1.0688l-1.6625 5.3437ZM71.1328 12.1148h1.0688v.8313h.1187c.2375-.5938.8313-.95 1.5438-.95 1.1875 0 1.9.7125 1.9 2.0187v3.4438h-1.0688v-3.2063c0-.8312-.3562-1.3062-1.1875-1.3062-.8312 0-1.3062.475-1.3062 1.3062v3.0875h-1.0688v-5.225ZM77.3086 9.97656h1.0687v7.48124h-1.0687V9.97656ZM79.8008 14.7273c0-1.7812.95-2.7312 2.4937-2.7312 1.5438 0 2.4938 1.0687 2.4938 2.7312 0 1.7813-.95 2.7313-2.4938 2.7313-1.5437.1187-2.4937-.95-2.4937-2.7313Zm4.0375 0c0-1.1875-.475-1.7812-1.425-1.7812-.95 0-1.425.7125-1.425 1.7812 0 1.1875.475 1.9 1.425 1.9.8312 0 1.425-.7125 1.425-1.9ZM85.9766 15.9148c0-.95.7125-1.5437 2.0187-1.5437l1.425-.1188v-.475c0-.5937-.3562-.8312-1.0687-.8312-.5938 0-.95.2375-1.0688.5937h-1.0687c.1187-.95.95-1.5437 2.1375-1.5437 1.3062 0 2.1375.7125 2.1375 1.7812v3.6813h-1.0688v-.7125h-.1187c-.3563.5937-.95.8312-1.6625.8312-.95 0-1.6625-.7125-1.6625-1.6625Zm3.4437-.475v-.475l-1.3062.1188c-.7125 0-1.0688.3562-1.0688.7125 0 .475.475.7125.95.7125.8313.1187 1.425-.3563 1.425-1.0688ZM91.7969 14.7266c0-1.6625.8312-2.7313 2.2562-2.7313.7125 0 1.3063.3563 1.6625.95h.1188V9.97656h1.0687v7.48124h-1.0687v-.8312h-.1188c-.3562.5937-.95.95-1.6625.95-1.3062 0-2.2562-1.0688-2.2562-2.85Zm1.1875 0c0 1.1875.5937 1.7812 1.425 1.7812.8312 0 1.425-.7125 1.425-1.7812 0-1.0688-.5938-1.7813-1.425-1.7813-.95 0-1.425.7125-1.425 1.7813ZM101.176 14.7273c0-1.7812.95-2.7312 2.494-2.7312 1.543 0 2.493 1.0687 2.493 2.7312 0 1.7813-.95 2.7313-2.493 2.7313-1.544.1187-2.494-.95-2.494-2.7313Zm4.037 0c0-1.1875-.475-1.7812-1.425-1.7812-.95 0-1.425.7125-1.425 1.7812 0 1.1875.475 1.9 1.425 1.9.832 0 1.425-.7125 1.425-1.9ZM107.707 12.1148h1.069v.8313h.119c.237-.5938.831-.95 1.543-.95 1.188 0 1.9.7125 1.9 2.0187v3.4438h-1.068v-3.2063c0-.8312-.357-1.3062-1.188-1.3062s-1.306.475-1.306 1.3062v3.0875h-1.069v-5.225ZM118.159 10.8086v1.3062h1.188v.95h-1.188v2.7313c0 .5937.238.8312.713.8312h.356v.8313h-.594c-1.187 0-1.662-.3563-1.662-1.425v-2.9688h-.831v-.8312h.831v-1.425h1.187ZM120.77 9.97656h1.068v2.96874h.119c.238-.5937.831-.95 1.663-.95 1.187 0 1.9.7125 1.9 2.0188v3.4437h-1.069v-3.2062c0-.8313-.356-1.3063-1.188-1.3063-.831 0-1.306.5938-1.306 1.3063v3.0875h-1.069V9.97656h-.118ZM131.576 16.0336c-.238.95-1.069 1.5437-2.375 1.5437-1.544 0-2.494-1.0687-2.494-2.7312 0-1.6625.95-2.85 2.494-2.85 1.544 0 2.375 1.0687 2.375 2.7312v.3563h-3.8c0 .95.594 1.5437 1.425 1.5437.594 0 1.069-.2375 1.306-.5937h1.069Zm-3.8-1.7813h2.731c0-.8312-.594-1.425-1.306-1.425-.831.1188-1.306.5938-1.425 1.425Z"/></svg>