<svg xmlns="http://www.w3.org/2000/svg" fill="none" viewBox="0 0 160 48"><g clip-path="url(#a)"><path fill="#000" d="M154.074 48H5.92593C2.60741 48 0 45.24 0 42V6c0-3.36 2.72593-6 5.92593-6H154.074C157.393 0 160 2.76 160 6v36c0 3.36-2.607 6-5.926 6Z"/><path fill="#fff" stroke="#fff" stroke-miterlimit="10" stroke-width=".2" d="M56.1775 12.2412c0 .9601-.237 1.8-.8296 2.4001-.7111.7199-1.5408 1.08-2.6074 1.08-1.0667 0-1.8963-.3601-2.6074-1.08-.7111-.7201-1.0667-1.56-1.0667-2.64s.3556-1.92 1.0667-2.64005c.7111-.72 1.5407-1.08 2.6074-1.08.4741 0 .9481.12 1.4222.36.4741.24.8296.48 1.0667.84l-.5926.59995c-.4741-.59995-1.0667-.83995-1.8963-.83995-.7111 0-1.4222.24-1.8963.83995-.5926.48-.8296 1.2001-.8296 2.0401 0 .84.237 1.56.8296 2.04s1.1852.84 1.8963.84c.8296 0 1.4222-.24 2.0148-.84.3555-.36.5926-.84.5926-1.44h-2.6074v-.96h3.437v.4799ZM61.6286 9.24234h-3.2v2.27996h2.963v.84h-2.963v2.28h3.2v.96h-4.1481V8.40234h4.1481v.84ZM65.5411 15.6023h-.9482V9.24234h-2.0148v-.84h4.9778v.84h-2.0148v6.35996ZM70.9922 15.6023V8.40234h.9481v7.19996h-.9481ZM75.9708 15.6023h-.9482V9.24234h-2.0148v-.84h4.8593v.84h-2.0148v6.35996h.1185ZM87.2307 14.6413c-.7111.7199-1.5408 1.08-2.6074 1.08-1.0667 0-1.8963-.3601-2.6074-1.08-.7111-.7201-1.0667-1.56-1.0667-2.64s.3556-1.92 1.0667-2.64005c.7111-.72 1.5407-1.08 2.6074-1.08 1.0666 0 1.8963.36 2.6074 1.08.7111.72005 1.0666 1.56005 1.0666 2.64005s-.3555 1.9199-1.0666 2.64Zm-4.5037-.6001c.4741.48 1.1852.84 1.8963.84.7111 0 1.4222-.2399 1.8963-.84.474-.48.8296-1.2.8296-2.0399 0-.84-.237-1.56-.8296-2.04005-.4741-.48-1.1852-.84-1.8963-.84-.7111 0-1.4222.24-1.8963.84-.4741.48005-.8296 1.20005-.8296 2.04005 0 .8399.237 1.5599.8296 2.0399ZM89.6016 15.6023V8.40234h1.0666l3.4371 5.63996V8.40234h.9481v7.19996h-.9481l-3.6741-5.87996V15.6023h-.8296Z"/><path fill="#fff" d="M80.7109 26.1595c-2.8444 0-5.0963 2.16-5.0963 5.16 0 2.88 2.2519 5.16 5.0963 5.16 2.8445 0 5.0963-2.16 5.0963-5.16 0-3.12-2.2518-5.16-5.0963-5.16Zm0 8.16c-1.5407 0-2.8444-1.32-2.8444-3.12s1.3037-3.12 2.8444-3.12c1.5408 0 2.8445 1.2 2.8445 3.12 0 1.8-1.3037 3.12-2.8445 3.12Zm-11.0222-8.16c-2.8444 0-5.0963 2.16-5.0963 5.16 0 2.88 2.2519 5.16 5.0963 5.16 2.8445 0 5.0963-2.16 5.0963-5.16 0-3.12-2.2518-5.16-5.0963-5.16Zm0 8.16c-1.5407 0-2.8444-1.32-2.8444-3.12s1.3037-3.12 2.8444-3.12c1.5408 0 2.8445 1.2 2.8445 3.12 0 1.8-1.3037 3.12-2.8445 3.12Zm-13.1555-6.6v2.16h5.0963c-.1186 1.2-.5926 2.16-1.1852 2.76-.7111.72-1.8963 1.56-3.9111 1.56-3.2 0-5.5704-2.52-5.5704-5.76 0-3.24 2.4889-5.76 5.5704-5.76 1.6592 0 2.9629.72 3.9111 1.56l1.5407-1.56c-1.3037-1.2-2.963-2.16-5.3333-2.16-4.2667 0-7.9408 3.6-7.9408 7.92s3.6741 7.92 7.9408 7.92c2.3703 0 4.0296-.72 5.4518-2.28 1.4223-1.44 1.8963-3.48 1.8963-5.04 0-.48 0-.96-.1185-1.32h-7.3481Zm53.8078 1.68c-.475-1.2-1.66-3.24-4.267-3.24-2.608 0-4.741 2.04-4.741 5.16 0 2.88 2.133 5.16 4.978 5.16 2.252 0 3.674-1.44 4.148-2.28l-1.659-1.2c-.593.84-1.304 1.44-2.489 1.44-1.185 0-1.896-.48-2.489-1.56l6.756-2.88-.237-.6Zm-6.875 1.68c0-1.92 1.541-3 2.608-3 .83 0 1.659.48 1.896 1.08l-4.504 1.92Zm-5.5699 4.92h2.2519v-15h-2.2519v15Zm-3.5555-8.76c-.5926-.6-1.5408-1.2-2.726-1.2-2.4888 0-4.8592 2.28-4.8592 5.16 0 2.88 2.2518 5.04 4.8592 5.04 1.1852 0 2.1334-.6 2.6074-1.2h.1186v.72c0 1.92-1.0667 3-2.726 3-1.3037 0-2.2518-.96-2.4888-1.8l-1.8963.84c.5925 1.32 2.0148 3 4.5037 3 2.6074 0 4.7407-1.56 4.7407-5.28v-9.12h-2.1333v.84Zm-2.6074 7.08c-1.5408 0-2.8445-1.32-2.8445-3.12s1.3037-3.12 2.8445-3.12c1.5407 0 2.7259 1.32 2.7259 3.12s-1.1852 3.12-2.7259 3.12Zm28.9188-13.32h-5.334v15h2.252v-5.64h3.082c2.489 0 4.859-1.8 4.859-4.68s-2.37-4.68-4.859-4.68Zm.118 7.2h-3.2v-5.16h3.2c1.659 0 2.608 1.44 2.608 2.52-.119 1.32-1.067 2.64-2.608 2.64Zm13.63-2.16c-1.659 0-3.319.72-3.911 2.28l2.015.84c.474-.84 1.185-1.08 2.014-1.08 1.186 0 2.252.72 2.371 1.92v.12c-.356-.24-1.304-.6-2.252-.6-2.133 0-4.267 1.2-4.267 3.36 0 2.04 1.778 3.36 3.674 3.36 1.541 0 2.252-.72 2.845-1.44h.118v1.2h2.134v-5.76c-.237-2.64-2.252-4.2-4.741-4.2Zm-.237 8.28c-.711 0-1.778-.36-1.778-1.32 0-1.2 1.304-1.56 2.37-1.56.949 0 1.423.24 2.015.48-.237 1.44-1.422 2.4-2.607 2.4Zm12.444-7.92-2.489 6.48H144l-2.608-6.48h-2.37l3.911 9.12-2.252 5.04h2.252l6.045-14.16h-2.371Zm-19.911 9.6h2.252v-15h-2.252v15Z"/><path fill="url(#b)" d="M12.3256 9c-.3555.36-.474.96-.474 1.68V37.2c0 .72.237 1.32.5926 1.68l.1185.12L27.259 24.12v-.24L12.3256 9Z"/><path fill="url(#c)" d="m31.9999 29.1609-4.8593-4.92v-.36l4.8593-4.92.1185.12 5.8074 3.36c1.6593.96 1.6593 2.52 0 3.48l-5.9259 3.24Z"/><path fill="url(#d)" d="M32.1207 29.04 27.1429 24 12.3281 39c.5926.6 1.4222.6 2.4889.12l17.3037-10.08Z"/><path fill="url(#e)" d="M32.1207 18.9599 14.817 8.99994c-1.0667-.6-1.8963-.48-2.4889.12L27.1429 23.9999l4.9778-5.04Z"/><path fill="#000" d="m31.9983 28.9219-17.1852 9.84c-.9481.6-1.7778.48-2.3704 0l-.1185.12.1185.12c.5926.48 1.4223.6 2.3704 0l17.1852-10.08Z" opacity=".2"/><path fill="#000" d="M12.3256 38.7619c-.3555-.36-.474-.96-.474-1.68v.12c0 .72.237 1.32.5926 1.68v-.12h-.1186ZM37.9259 25.56 32 28.92l.1185.12 5.8074-3.36c.8297-.48 1.1852-1.08 1.1852-1.68 0 .6-.4741 1.08-1.1852 1.56Z" opacity=".12"/><path fill="#fff" d="m14.8145 9.1215 23.1111 13.32c.7111.48 1.1852.96 1.1852 1.56 0-.6-.3555-1.2-1.1852-1.68l-23.1111-13.32c-1.6592-.96-2.9629-.24-2.9629 1.68v.12c0-1.8 1.3037-2.64 2.9629-1.68Z" opacity=".25"/></g><defs><linearGradient id="b" x1="25.8363" x2="5.69895" y1="10.4518" y2="30.3405" gradientUnits="userSpaceOnUse"><stop stop-color="#00A0FF"/><stop offset=".00657" stop-color="#00A1FF"/><stop offset=".2601" stop-color="#00BEFF"/><stop offset=".5122" stop-color="#00D2FF"/><stop offset=".7604" stop-color="#00DFFF"/><stop offset="1" stop-color="#00E3FF"/></linearGradient><linearGradient id="c" x1="40.0998" x2="11.422" y1="24.0029" y2="24.0029" gradientUnits="userSpaceOnUse"><stop stop-color="#FFE000"/><stop offset=".4087" stop-color="#FFBD00"/><stop offset=".7754" stop-color="orange"/><stop offset="1" stop-color="#FF9C00"/></linearGradient><linearGradient id="d" x1="29.4266" x2="2.11882" y1="26.7554" y2="53.7262" gradientUnits="userSpaceOnUse"><stop stop-color="#FF3A44"/><stop offset="1" stop-color="#C31162"/></linearGradient><linearGradient id="e" x1="8.65073" x2="20.8448" y1=".2115" y2="12.255" gradientUnits="userSpaceOnUse"><stop stop-color="#32A071"/><stop offset=".0685" stop-color="#2DA771"/><stop offset=".4762" stop-color="#15CF74"/><stop offset=".8009" stop-color="#06E775"/><stop offset="1" stop-color="#00F076"/></linearGradient><clipPath id="a"><path fill="#fff" d="M0 0h160v48H0z"/></clipPath></defs></svg>