<svg xmlns="http://www.w3.org/2000/svg" fill="none" viewBox="0 0 90 26"><path fill="#000" fill-rule="evenodd" d="M48.0552 23.87c-1.6696-.9803-2.9894-2.3505-3.9595-4.1105l3.8237-9.0378c-.0865.6087-.1298 1.2606-.1298 1.9559 0 1.7225.2616 3.1875.7848 4.3948.5232 1.2074 1.2637 2.1291 2.2216 2.765.9578.6278 2.0888.9417 3.3927.9417 1.1833 0 2.1935-.2093 3.0306-.6278.8452-.4266 1.4891-1.0263 1.9318-1.799.4282-.7342.6531-1.5954.6745-2.5838h-5.3109v-3.9361H64.862v3.115c0 2.1733-.4588 4.0408-1.3764 5.6023-.9176 1.5535-2.1813 2.7529-3.7912 3.598-1.6098.8371-3.4531 1.2557-5.5298 1.2557-2.3182 0-4.3546-.5111-6.1094-1.5334Zm2.7529-18.30395c-.4148.27416-.7896.60281-1.1246.98595L52.4127.10124C52.9466.03374 53.4944 0 54.0559 0c1.4006 0 2.7046.20526 3.912.61577 1.2073.40246 2.2779.97396 3.2116 1.71449.9418.74053 1.7105 1.62192 2.3061 2.64417.5957 1.01421.978 2.13305 1.147 3.35654h-5.3125c-.169-.5876-.4065-1.10677-.7123-1.55753-.3059-.45881-.6802-.84517-1.1229-1.15909-.4347-.32197-.9337-.56747-1.4972-.73651-.5553-.16903-1.1711-.25355-1.8473-.25355-1.2637 0-2.3745.31392-3.3323.94176Zm-8.757 7.13565c0 2.6965-.5111 4.9905-1.5333 6.8821-1.0143 1.8916-2.3987 3.3364-4.1535 4.3345-1.7466.9901-3.7107 1.4851-5.892 1.4851-2.1974 0-4.1695-.499-5.9162-1.4971-1.7467-.9982-3.1271-2.443-4.1413-4.3346-1.0142-1.8915-1.5213-4.1815-1.5213-6.87 0-2.6965.5071-4.99052 1.5213-6.8821 1.0142-1.89157 2.3946-3.33238 4.1413-4.32244C26.3028.49906 28.2749 0 30.4723 0c2.1813 0 4.1454.49905 5.892 1.49716 1.7548.99006 3.1392 2.43087 4.1535 4.32244 1.0222 1.89158 1.5333 4.1856 1.5333 6.8821Zm-5.3004 0c0-1.7467-.2616-3.21969-.7848-4.41903-.5151-1.19934-1.2436-2.1089-2.1854-2.72869-.9417-.61979-2.0445-.92969-3.3082-.92969-1.2637 0-2.3665.3099-3.3082.92969-.9418.61979-1.6743 1.52935-2.1975 2.72869-.5151 1.19934-.7727 2.67233-.7727 4.41903 0 1.7467.2576 3.2197.7727 4.419.5232 1.1994 1.2557 2.1089 2.1975 2.7287.9417.6198 2.0445.9297 3.3082.9297 1.2637 0 2.3665-.3099 3.3082-.9297.9418-.6198 1.6703-1.5293 2.1854-2.7287.5232-1.1993.7848-2.6723.7848-4.419ZM0 25.0653 10 .33807h6.228L7.54321 20.755h9.28559v4.3103H0Zm81.5563.2419c-.527.0642-1.068.0962-1.6231.0962-2.1974 0-4.1695-.499-5.9162-1.4971-1.7467-.9982-3.1271-2.443-4.1413-4.3346-1.0142-1.8915-1.5213-4.1815-1.5213-6.87 0-2.6965.5071-4.99052 1.5213-6.8821 1.0142-1.89157 2.3946-3.33238 4.1413-4.32244C75.7637.49906 77.7358 0 79.9332 0c2.1814 0 4.1454.49905 5.8921 1.49716 1.6976.95785 3.0487 2.33762 4.0532 4.13929l-3.7797 8.93385c.0752-.5835.1128-1.2064.1128-1.8686 0-1.7467-.2616-3.21969-.7848-4.41903-.5151-1.19934-1.2436-2.1089-2.1853-2.72869-.9418-.61979-2.0445-.92969-3.3083-.92969-1.2637 0-2.3664.3099-3.3082.92969-.9418.61979-1.6742 1.52935-2.1974 2.72869-.5152 1.19934-.7728 2.67233-.7728 4.41903 0 1.7467.2576 3.2197.7728 4.419.5232 1.1994 1.2556 2.1089 2.1974 2.7287.9418.6198 2.0445.9297 3.3082.9297 1.2638 0 2.3665-.3099 3.3083-.9297.3539-.2329.6778-.5068.9715-.8217l-2.6567 6.2795Z" clip-rule="evenodd"/></svg>