<svg xmlns="http://www.w3.org/2000/svg" fill="none" viewBox="0 0 63 55"><path fill="url(#a)" d="M45.8348 18.8557c0 7.8504-6.364 14.2144-14.2144 14.2144-7.8503 0-14.2143-6.364-14.2143-14.2144S20.0169 4.64129 31.6204 4.64136c11.6036.00007 14.2144 6.36394 14.2144 14.21434Z"/><ellipse cx="31.6213" cy="7.54232" fill="url(#b)" rx="6.67205" ry="7.54232"/><path fill="url(#c)" d="M31.4575 45.0697c-6.7986-3.9252-9.128-12.6186-5.2028-19.4172 3.9252-6.7986 12.6185-9.128 19.4172-5.2028 6.7986 3.9252 11.0046 9.3682 5.2028 19.4172-5.8019 10.0489-12.6186 9.128-19.4172 5.2028Z"/><ellipse cx="48.3619" cy="38.4167" fill="url(#d)" rx="6.67205" ry="7.54232" transform="rotate(120 48.3619 38.4167)"/><path fill="url(#e)" d="M16.33 20.7413c6.7986-3.9252 15.492-1.5958 19.4172 5.2028 3.9252 6.7987 1.5958 15.492-5.2028 19.4172-6.7986 3.9252-13.6155 4.8462-19.4172-5.2028-5.80173-10.049-1.59582-15.492 5.2028-19.4172Z"/><ellipse cx="13.6392" cy="38.708" fill="url(#f)" rx="6.67205" ry="7.54232" transform="rotate(-120 13.6392 38.708)"/><circle cx="31.4751" cy="27.7036" r="11.1684" fill="#fff"/><path fill="url(#g)" d="M45.8348 18.8557c0 7.8504-6.364 14.2144-14.2144 14.2144-7.8503 0-14.2143-6.364-14.2143-14.2144S20.0169 4.64129 31.6204 4.64136c11.6036.00007 14.2144 6.36394 14.2144 14.21434Z"/><ellipse cx="31.6213" cy="7.54232" fill="url(#h)" rx="6.67205" ry="7.54232"/><path fill="url(#i)" d="M31.4574 45.0695c-6.7987-3.9252-9.128-12.6186-5.2028-19.4172 3.9251-6.7987 12.6185-9.128 19.4171-5.2028 6.7987 3.9251 11.0047 9.3682 5.2029 19.4171-5.8019 10.049-12.6186 9.1281-19.4172 5.2029Z"/><ellipse cx="48.3618" cy="38.4164" fill="url(#j)" rx="6.67205" ry="7.54232" transform="rotate(120 48.3618 38.4164)"/><path fill="url(#k)" d="M16.33 20.7413c6.7986-3.9252 15.492-1.5958 19.4172 5.2028 3.9252 6.7987 1.5958 15.492-5.2028 19.4172-6.7986 3.9252-13.6155 4.8462-19.4172-5.2028-5.80173-10.049-1.59582-15.492 5.2028-19.4172Z"/><ellipse cx="13.6392" cy="38.708" fill="url(#l)" rx="6.67205" ry="7.54232" transform="rotate(-120 13.6392 38.708)"/><circle cx="31.4751" cy="27.7036" r="11.1684" fill="#fff"/><path fill="#FF7F24" d="m27.186 30.6801-1.2486-5.0114v5.4299c0 .3005-.0673.5258-.202.676-.131.1503-.3064.2254-.526.2254-.2125 0-.3861-.0733-.5207-.22-.1346-.1502-.2019-.3774-.2019-.6814v-6.224c0-.3434.0885-.5741.2657-.6922.1771-.1216.4162-.1824.7173-.1824h.4888c.294 0 .5066.0268.6376.0805.1346.0536.2338.1502.2976.2897.0638.1395.1364.3667.2178.6814l1.1318 4.3086 1.1318-4.3086c.0815-.3147.1541-.5419.2178-.6814.0638-.1395.1612-.2361.2923-.2897.1346-.0537.3489-.0805.6429-.0805h.4889c.3011 0 .5402.0608.7173.1824.1771.1181.2657.3488.2657.6922v6.224c0 .3005-.0673.5258-.202.676-.131.1503-.3081.2254-.5313.2254-.209 0-.3808-.0751-.5154-.2254-.1346-.1502-.2019-.3755-.2019-.676v-5.4299l-1.2487 5.0114c-.0815.3255-.1488.5651-.2019.719-.0496.1502-.1435.2879-.2816.4131-.1382.1252-.3295.1878-.5739.1878-.1842 0-.34-.0411-.4676-.1234-.1275-.0787-.2267-.1806-.2975-.3058-.0709-.1252-.1275-.263-.1701-.4132-.0389-.1538-.0797-.313-.1222-.4775ZM38.1924 25.3146h-1.7216v5.7142c0 .3291-.0726.5742-.2179.7351-.1452.1574-.3329.2361-.5632.2361-.2338 0-.4251-.0805-.5738-.2414-.1453-.161-.2179-.4043-.2179-.7298v-5.7142h-1.7216c-.2692 0-.4693-.0591-.6004-.1771-.1311-.1216-.1966-.2808-.1966-.4775 0-.2039.0673-.3649.2019-.4829.1382-.1181.3365-.1771.5951-.1771h5.016c.2727 0 .4746.0608.6057.1824.1346.1216.2019.2808.2019.4776 0 .1967-.0673.3559-.2019.4775-.1346.118-.3365.1771-.6057.1771Z"/><defs><linearGradient id="a" x1="31.6204" x2="31.6204" y1="4.64136" y2="33.0701" gradientUnits="userSpaceOnUse"><stop stop-color="#00C11F" stop-opacity=".2"/><stop offset="1" stop-color="#00C11F"/></linearGradient><linearGradient id="b" x1="31.6213" x2="31.6213" y1="0" y2="15.0846" gradientUnits="userSpaceOnUse"><stop stop-color="#00C11F" stop-opacity=".5"/><stop offset="1" stop-color="#00C11F"/></linearGradient><linearGradient id="c" x1="50.8747" x2="26.2547" y1="39.8669" y2="25.6525" gradientUnits="userSpaceOnUse"><stop stop-color="#0056FF" stop-opacity=".2"/><stop offset="1" stop-color="#0056FF"/></linearGradient><linearGradient id="d" x1="48.3619" x2="48.3619" y1="30.8744" y2="45.959" gradientUnits="userSpaceOnUse"><stop stop-color="#0056FF" stop-opacity=".5"/><stop offset="1" stop-color="#0056FF"/></linearGradient><linearGradient id="e" x1="11.1272" x2="35.7472" y1="40.1585" y2="25.9441" gradientUnits="userSpaceOnUse"><stop stop-color="#F4E951" stop-opacity=".2"/><stop offset="1" stop-color="#F4E951"/></linearGradient><linearGradient id="f" x1="13.6392" x2="13.6392" y1="31.1657" y2="46.2503" gradientUnits="userSpaceOnUse"><stop stop-color="#F4E951" stop-opacity=".5"/><stop offset="1" stop-color="#F4E951"/></linearGradient><linearGradient id="g" x1="31.6204" x2="31.6204" y1="4.64136" y2="33.0701" gradientUnits="userSpaceOnUse"><stop stop-color="#00C11F" stop-opacity=".2"/><stop offset="1" stop-color="#00C11F"/></linearGradient><linearGradient id="h" x1="31.6213" x2="31.6213" y1="0" y2="15.0846" gradientUnits="userSpaceOnUse"><stop stop-color="#00C11F" stop-opacity=".5"/><stop offset="1" stop-color="#00C11F"/></linearGradient><linearGradient id="i" x1="50.8746" x2="26.2546" y1="39.8666" y2="25.6523" gradientUnits="userSpaceOnUse"><stop stop-color="#0056FF" stop-opacity=".2"/><stop offset="1" stop-color="#0056FF"/></linearGradient><linearGradient id="j" x1="48.3618" x2="48.3618" y1="30.8741" y2="45.9588" gradientUnits="userSpaceOnUse"><stop stop-color="#0056FF" stop-opacity=".5"/><stop offset="1" stop-color="#0056FF"/></linearGradient><linearGradient id="k" x1="11.1272" x2="35.7472" y1="40.1585" y2="25.9441" gradientUnits="userSpaceOnUse"><stop stop-color="#F4E951" stop-opacity=".2"/><stop offset="1" stop-color="#F4E951"/></linearGradient><linearGradient id="l" x1="13.6392" x2="13.6392" y1="31.1657" y2="46.2503" gradientUnits="userSpaceOnUse"><stop stop-color="#F4E951" stop-opacity=".5"/><stop offset="1" stop-color="#F4E951"/></linearGradient></defs></svg>