<svg width="100" height="100" viewBox="0 0 100 100" fill="none" xmlns="http://www.w3.org/2000/svg">
<path d="M3.44828 0H0V3.44828H3.44828V0Z" fill="#1D2B3F"/>
<path d="M6.89655 0H3.44828V3.44828H6.89655V0Z" fill="#1D2B3F"/>
<path d="M10.3448 0H6.89655V3.44828H10.3448V0Z" fill="#1D2B3F"/>
<path d="M13.7931 0H10.3448V3.44828H13.7931V0Z" fill="#1D2B3F"/>
<path d="M17.2414 0H13.7931V3.44828H17.2414V0Z" fill="#1D2B3F"/>
<path d="M20.6897 0H17.2414V3.44828H20.6897V0Z" fill="#1D2B3F"/>
<path d="M24.1379 0H20.6897V3.44828H24.1379V0Z" fill="#1D2B3F"/>
<path d="M31.0345 0H27.5862V3.44828H31.0345V0Z" fill="#1D2B3F"/>
<path d="M34.4828 0H31.0345V3.44828H34.4828V0Z" fill="#1D2B3F"/>
<path d="M62.069 0H58.6207V3.44828H62.069V0Z" fill="#1D2B3F"/>
<path d="M65.5172 0H62.069V3.44828H65.5172V0Z" fill="#1D2B3F"/>
<path d="M68.9655 0H65.5172V3.44828H68.9655V0Z" fill="#1D2B3F"/>
<path d="M72.4138 0H68.9655V3.44828H72.4138V0Z" fill="#1D2B3F"/>
<path d="M79.3103 0H75.8621V3.44828H79.3103V0Z" fill="#1D2B3F"/>
<path d="M82.7586 0H79.3103V3.44828H82.7586V0Z" fill="#1D2B3F"/>
<path d="M86.2069 0H82.7586V3.44828H86.2069V0Z" fill="#1D2B3F"/>
<path d="M89.6552 0H86.2069V3.44828H89.6552V0Z" fill="#1D2B3F"/>
<path d="M93.1034 0H89.6552V3.44828H93.1034V0Z" fill="#1D2B3F"/>
<path d="M96.5517 0H93.1034V3.44828H96.5517V0Z" fill="#1D2B3F"/>
<path d="M100 0H96.5517V3.44828H100V0Z" fill="#1D2B3F"/>
<path d="M3.44828 3.44828H0V6.89655H3.44828V3.44828Z" fill="#1D2B3F"/>
<path d="M24.1379 3.44828H20.6897V6.89655H24.1379V3.44828Z" fill="#1D2B3F"/>
<path d="M34.4828 3.44828H31.0345V6.89655H34.4828V3.44828Z" fill="#1D2B3F"/>
<path d="M41.3793 3.44828H37.931V6.89655H41.3793V3.44828Z" fill="#1D2B3F"/>
<path d="M44.8276 3.44828H41.3793V6.89655H44.8276V3.44828Z" fill="#1D2B3F"/>
<path d="M51.7241 3.44828H48.2759V6.89655H51.7241V3.44828Z" fill="#1D2B3F"/>
<path d="M58.6207 3.44828H55.1724V6.89655H58.6207V3.44828Z" fill="#1D2B3F"/>
<path d="M79.3103 3.44828H75.8621V6.89655H79.3103V3.44828Z" fill="#1D2B3F"/>
<path d="M100 3.44828H96.5517V6.89655H100V3.44828Z" fill="#1D2B3F"/>
<path d="M3.44828 6.89655H0V10.3448H3.44828V6.89655Z" fill="#1D2B3F"/>
<path d="M10.3448 6.89655H6.89655V10.3448H10.3448V6.89655Z" fill="#1D2B3F"/>
<path d="M13.7931 6.89655H10.3448V10.3448H13.7931V6.89655Z" fill="#1D2B3F"/>
<path d="M17.2414 6.89655H13.7931V10.3448H17.2414V6.89655Z" fill="#1D2B3F"/>
<path d="M24.1379 6.89655H20.6897V10.3448H24.1379V6.89655Z" fill="#1D2B3F"/>
<path d="M31.0345 6.89655H27.5862V10.3448H31.0345V6.89655Z" fill="#1D2B3F"/>
<path d="M44.8276 6.89655H41.3793V10.3448H44.8276V6.89655Z" fill="#1D2B3F"/>
<path d="M48.2759 6.89655H44.8276V10.3448H48.2759V6.89655Z" fill="#1D2B3F"/>
<path d="M58.6207 6.89655H55.1724V10.3448H58.6207V6.89655Z" fill="#1D2B3F"/>
<path d="M72.4138 6.89655H68.9655V10.3448H72.4138V6.89655Z" fill="#1D2B3F"/>
<path d="M79.3103 6.89655H75.8621V10.3448H79.3103V6.89655Z" fill="#1D2B3F"/>
<path d="M86.2069 6.89655H82.7586V10.3448H86.2069V6.89655Z" fill="#1D2B3F"/>
<path d="M89.6552 6.89655H86.2069V10.3448H89.6552V6.89655Z" fill="#1D2B3F"/>
<path d="M93.1034 6.89655H89.6552V10.3448H93.1034V6.89655Z" fill="#1D2B3F"/>
<path d="M100 6.89655H96.5517V10.3448H100V6.89655Z" fill="#1D2B3F"/>
<path d="M3.44828 10.3448H0V13.7931H3.44828V10.3448Z" fill="#1D2B3F"/>
<path d="M10.3448 10.3448H6.89655V13.7931H10.3448V10.3448Z" fill="#1D2B3F"/>
<path d="M13.7931 10.3448H10.3448V13.7931H13.7931V10.3448Z" fill="#1D2B3F"/>
<path d="M17.2414 10.3448H13.7931V13.7931H17.2414V10.3448Z" fill="#1D2B3F"/>
<path d="M24.1379 10.3448H20.6897V13.7931H24.1379V10.3448Z" fill="#1D2B3F"/>
<path d="M31.0345 10.3448H27.5862V13.7931H31.0345V10.3448Z" fill="#1D2B3F"/>
<path d="M37.931 10.3448H34.4828V13.7931H37.931V10.3448Z" fill="#1D2B3F"/>
<path d="M41.3793 10.3448H37.931V13.7931H41.3793V10.3448Z" fill="#1D2B3F"/>
<path d="M48.2759 10.3448H44.8276V13.7931H48.2759V10.3448Z" fill="#1D2B3F"/>
<path d="M55.1724 10.3448H51.7241V13.7931H55.1724V10.3448Z" fill="#1D2B3F"/>
<path d="M62.069 10.3448H58.6207V13.7931H62.069V10.3448Z" fill="#1D2B3F"/>
<path d="M72.4138 10.3448H68.9655V13.7931H72.4138V10.3448Z" fill="#1D2B3F"/>
<path d="M79.3103 10.3448H75.8621V13.7931H79.3103V10.3448Z" fill="#1D2B3F"/>
<path d="M86.2069 10.3448H82.7586V13.7931H86.2069V10.3448Z" fill="#1D2B3F"/>
<path d="M89.6552 10.3448H86.2069V13.7931H89.6552V10.3448Z" fill="#1D2B3F"/>
<path d="M93.1034 10.3448H89.6552V13.7931H93.1034V10.3448Z" fill="#1D2B3F"/>
<path d="M100 10.3448H96.5517V13.7931H100V10.3448Z" fill="#1D2B3F"/>
<path d="M3.44828 13.7931H0V17.2414H3.44828V13.7931Z" fill="#1D2B3F"/>
<path d="M10.3448 13.7931H6.89655V17.2414H10.3448V13.7931Z" fill="#1D2B3F"/>
<path d="M13.7931 13.7931H10.3448V17.2414H13.7931V13.7931Z" fill="#1D2B3F"/>
<path d="M17.2414 13.7931H13.7931V17.2414H17.2414V13.7931Z" fill="#1D2B3F"/>
<path d="M24.1379 13.7931H20.6897V17.2414H24.1379V13.7931Z" fill="#1D2B3F"/>
<path d="M31.0345 13.7931H27.5862V17.2414H31.0345V13.7931Z" fill="#1D2B3F"/>
<path d="M34.4828 13.7931H31.0345V17.2414H34.4828V13.7931Z" fill="#1D2B3F"/>
<path d="M44.8276 13.7931H41.3793V17.2414H44.8276V13.7931Z" fill="#1D2B3F"/>
<path d="M51.7241 13.7931H48.2759V17.2414H51.7241V13.7931Z" fill="#1D2B3F"/>
<path d="M62.069 13.7931H58.6207V17.2414H62.069V13.7931Z" fill="#1D2B3F"/>
<path d="M65.5172 13.7931H62.069V17.2414H65.5172V13.7931Z" fill="#1D2B3F"/>
<path d="M68.9655 13.7931H65.5172V17.2414H68.9655V13.7931Z" fill="#1D2B3F"/>
<path d="M79.3103 13.7931H75.8621V17.2414H79.3103V13.7931Z" fill="#1D2B3F"/>
<path d="M86.2069 13.7931H82.7586V17.2414H86.2069V13.7931Z" fill="#1D2B3F"/>
<path d="M89.6552 13.7931H86.2069V17.2414H89.6552V13.7931Z" fill="#1D2B3F"/>
<path d="M93.1034 13.7931H89.6552V17.2414H93.1034V13.7931Z" fill="#1D2B3F"/>
<path d="M100 13.7931H96.5517V17.2414H100V13.7931Z" fill="#1D2B3F"/>
<path d="M3.44828 17.2414H0V20.6897H3.44828V17.2414Z" fill="#1D2B3F"/>
<path d="M24.1379 17.2414H20.6897V20.6897H24.1379V17.2414Z" fill="#1D2B3F"/>
<path d="M31.0345 17.2414H27.5862V20.6897H31.0345V17.2414Z" fill="#1D2B3F"/>
<path d="M34.4828 17.2414H31.0345V20.6897H34.4828V17.2414Z" fill="#1D2B3F"/>
<path d="M48.2759 17.2414H44.8276V20.6897H48.2759V17.2414Z" fill="#1D2B3F"/>
<path d="M58.6207 17.2414H55.1724V20.6897H58.6207V17.2414Z" fill="#1D2B3F"/>
<path d="M65.5172 17.2414H62.069V20.6897H65.5172V17.2414Z" fill="#1D2B3F"/>
<path d="M72.4138 17.2414H68.9655V20.6897H72.4138V17.2414Z" fill="#1D2B3F"/>
<path d="M79.3103 17.2414H75.8621V20.6897H79.3103V17.2414Z" fill="#1D2B3F"/>
<path d="M100 17.2414H96.5517V20.6897H100V17.2414Z" fill="#1D2B3F"/>
<path d="M3.44828 20.6897H0V24.1379H3.44828V20.6897Z" fill="#1D2B3F"/>
<path d="M6.89655 20.6897H3.44828V24.1379H6.89655V20.6897Z" fill="#1D2B3F"/>
<path d="M10.3448 20.6897H6.89655V24.1379H10.3448V20.6897Z" fill="#1D2B3F"/>
<path d="M13.7931 20.6897H10.3448V24.1379H13.7931V20.6897Z" fill="#1D2B3F"/>
<path d="M17.2414 20.6897H13.7931V24.1379H17.2414V20.6897Z" fill="#1D2B3F"/>
<path d="M20.6897 20.6897H17.2414V24.1379H20.6897V20.6897Z" fill="#1D2B3F"/>
<path d="M24.1379 20.6897H20.6897V24.1379H24.1379V20.6897Z" fill="#1D2B3F"/>
<path d="M31.0345 20.6897H27.5862V24.1379H31.0345V20.6897Z" fill="#1D2B3F"/>
<path d="M37.931 20.6897H34.4828V24.1379H37.931V20.6897Z" fill="#1D2B3F"/>
<path d="M44.8276 20.6897H41.3793V24.1379H44.8276V20.6897Z" fill="#1D2B3F"/>
<path d="M51.7241 20.6897H48.2759V24.1379H51.7241V20.6897Z" fill="#1D2B3F"/>
<path d="M58.6207 20.6897H55.1724V24.1379H58.6207V20.6897Z" fill="#1D2B3F"/>
<path d="M65.5172 20.6897H62.069V24.1379H65.5172V20.6897Z" fill="#1D2B3F"/>
<path d="M72.4138 20.6897H68.9655V24.1379H72.4138V20.6897Z" fill="#1D2B3F"/>
<path d="M79.3103 20.6897H75.8621V24.1379H79.3103V20.6897Z" fill="#1D2B3F"/>
<path d="M82.7586 20.6897H79.3103V24.1379H82.7586V20.6897Z" fill="#1D2B3F"/>
<path d="M86.2069 20.6897H82.7586V24.1379H86.2069V20.6897Z" fill="#1D2B3F"/>
<path d="M89.6552 20.6897H86.2069V24.1379H89.6552V20.6897Z" fill="#1D2B3F"/>
<path d="M93.1034 20.6897H89.6552V24.1379H93.1034V20.6897Z" fill="#1D2B3F"/>
<path d="M96.5517 20.6897H93.1034V24.1379H96.5517V20.6897Z" fill="#1D2B3F"/>
<path d="M100 20.6897H96.5517V24.1379H100V20.6897Z" fill="#1D2B3F"/>
<path d="M34.4828 24.1379H31.0345V27.5862H34.4828V24.1379Z" fill="#1D2B3F"/>
<path d="M41.3793 24.1379H37.931V27.5862H41.3793V24.1379Z" fill="#1D2B3F"/>
<path d="M48.2759 24.1379H44.8276V27.5862H48.2759V24.1379Z" fill="#1D2B3F"/>
<path d="M55.1724 24.1379H51.7241V27.5862H55.1724V24.1379Z" fill="#1D2B3F"/>
<path d="M58.6207 24.1379H55.1724V27.5862H58.6207V24.1379Z" fill="#1D2B3F"/>
<path d="M65.5172 24.1379H62.069V27.5862H65.5172V24.1379Z" fill="#1D2B3F"/>
<path d="M10.3448 27.5862H6.89655V31.0345H10.3448V27.5862Z" fill="#1D2B3F"/>
<path d="M13.7931 27.5862H10.3448V31.0345H13.7931V27.5862Z" fill="#1D2B3F"/>
<path d="M17.2414 27.5862H13.7931V31.0345H17.2414V27.5862Z" fill="#1D2B3F"/>
<path d="M20.6897 27.5862H17.2414V31.0345H20.6897V27.5862Z" fill="#1D2B3F"/>
<path d="M24.1379 27.5862H20.6897V31.0345H24.1379V27.5862Z" fill="#1D2B3F"/>
<path d="M27.5862 27.5862H24.1379V31.0345H27.5862V27.5862Z" fill="#1D2B3F"/>
<path d="M75.8621 27.5862H72.4138V31.0345H75.8621V27.5862Z" fill="#1D2B3F"/>
<path d="M82.7586 27.5862H79.3103V31.0345H82.7586V27.5862Z" fill="#1D2B3F"/>
<path d="M86.2069 27.5862H82.7586V31.0345H86.2069V27.5862Z" fill="#1D2B3F"/>
<path d="M89.6552 27.5862H86.2069V31.0345H89.6552V27.5862Z" fill="#1D2B3F"/>
<path d="M93.1034 27.5862H89.6552V31.0345H93.1034V27.5862Z" fill="#1D2B3F"/>
<path d="M100 27.5862H96.5517V31.0345H100V27.5862Z" fill="#1D2B3F"/>
<path d="M6.89655 31.0345H3.44828V34.4828H6.89655V31.0345Z" fill="#1D2B3F"/>
<path d="M20.6897 31.0345H17.2414V34.4828H20.6897V31.0345Z" fill="#1D2B3F"/>
<path d="M27.5862 31.0345H24.1379V34.4828H27.5862V31.0345Z" fill="#1D2B3F"/>
<path d="M75.8621 31.0345H72.4138V34.4828H75.8621V31.0345Z" fill="#1D2B3F"/>
<path d="M79.3103 31.0345H75.8621V34.4828H79.3103V31.0345Z" fill="#1D2B3F"/>
<path d="M86.2069 31.0345H82.7586V34.4828H86.2069V31.0345Z" fill="#1D2B3F"/>
<path d="M93.1034 31.0345H89.6552V34.4828H93.1034V31.0345Z" fill="#1D2B3F"/>
<path d="M96.5517 31.0345H93.1034V34.4828H96.5517V31.0345Z" fill="#1D2B3F"/>
<path d="M100 31.0345H96.5517V34.4828H100V31.0345Z" fill="#1D2B3F"/>
<path d="M6.89655 34.4828H3.44828V37.931H6.89655V34.4828Z" fill="#1D2B3F"/>
<path d="M20.6897 34.4828H17.2414V37.931H20.6897V34.4828Z" fill="#1D2B3F"/>
<path d="M24.1379 34.4828H20.6897V37.931H24.1379V34.4828Z" fill="#1D2B3F"/>
<path d="M27.5862 34.4828H24.1379V37.931H27.5862V34.4828Z" fill="#1D2B3F"/>
<path d="M75.8621 34.4828H72.4138V37.931H75.8621V34.4828Z" fill="#1D2B3F"/>
<path d="M96.5517 34.4828H93.1034V37.931H96.5517V34.4828Z" fill="#1D2B3F"/>
<path d="M100 34.4828H96.5517V37.931H100V34.4828Z" fill="#1D2B3F"/>
<path d="M86.2069 37.931H82.7586V41.3793H86.2069V37.931Z" fill="#1D2B3F"/>
<path d="M89.6552 37.931H86.2069V41.3793H89.6552V37.931Z" fill="#1D2B3F"/>
<path d="M93.1034 37.931H89.6552V41.3793H93.1034V37.931Z" fill="#1D2B3F"/>
<path d="M96.5517 37.931H93.1034V41.3793H96.5517V37.931Z" fill="#1D2B3F"/>
<path d="M100 37.931H96.5517V41.3793H100V37.931Z" fill="#1D2B3F"/>
<path d="M3.44828 41.3793H0V44.8276H3.44828V41.3793Z" fill="#1D2B3F"/>
<path d="M13.7931 41.3793H10.3448V44.8276H13.7931V41.3793Z" fill="#1D2B3F"/>
<path d="M17.2414 41.3793H13.7931V44.8276H17.2414V41.3793Z" fill="#1D2B3F"/>
<path d="M20.6897 41.3793H17.2414V44.8276H20.6897V41.3793Z" fill="#1D2B3F"/>
<path d="M24.1379 41.3793H20.6897V44.8276H24.1379V41.3793Z" fill="#1D2B3F"/>
<path d="M79.3103 41.3793H75.8621V44.8276H79.3103V41.3793Z" fill="#1D2B3F"/>
<path d="M89.6552 41.3793H86.2069V44.8276H89.6552V41.3793Z" fill="#1D2B3F"/>
<path d="M96.5517 41.3793H93.1034V44.8276H96.5517V41.3793Z" fill="#1D2B3F"/>
<path d="M13.7931 44.8276H10.3448V48.2759H13.7931V44.8276Z" fill="#1D2B3F"/>
<path d="M96.5517 44.8276H93.1034V48.2759H96.5517V44.8276Z" fill="#1D2B3F"/>
<path d="M10.3448 48.2759H6.89655V51.7241H10.3448V48.2759Z" fill="#1D2B3F"/>
<path d="M13.7931 48.2759H10.3448V51.7241H13.7931V48.2759Z" fill="#1D2B3F"/>
<path d="M20.6897 48.2759H17.2414V51.7241H20.6897V48.2759Z" fill="#1D2B3F"/>
<path d="M24.1379 48.2759H20.6897V51.7241H24.1379V48.2759Z" fill="#1D2B3F"/>
<path d="M27.5862 48.2759H24.1379V51.7241H27.5862V48.2759Z" fill="#1D2B3F"/>
<path d="M82.7586 48.2759H79.3103V51.7241H82.7586V48.2759Z" fill="#1D2B3F"/>
<path d="M89.6552 48.2759H86.2069V51.7241H89.6552V48.2759Z" fill="#1D2B3F"/>
<path d="M100 48.2759H96.5517V51.7241H100V48.2759Z" fill="#1D2B3F"/>
<path d="M6.89655 51.7241H3.44828V55.1724H6.89655V51.7241Z" fill="#1D2B3F"/>
<path d="M10.3448 51.7241H6.89655V55.1724H10.3448V51.7241Z" fill="#1D2B3F"/>
<path d="M13.7931 51.7241H10.3448V55.1724H13.7931V51.7241Z" fill="#1D2B3F"/>
<path d="M20.6897 51.7241H17.2414V55.1724H20.6897V51.7241Z" fill="#1D2B3F"/>
<path d="M27.5862 51.7241H24.1379V55.1724H27.5862V51.7241Z" fill="#1D2B3F"/>
<path d="M79.3103 51.7241H75.8621V55.1724H79.3103V51.7241Z" fill="#1D2B3F"/>
<path d="M82.7586 51.7241H79.3103V55.1724H82.7586V51.7241Z" fill="#1D2B3F"/>
<path d="M93.1034 51.7241H89.6552V55.1724H93.1034V51.7241Z" fill="#1D2B3F"/>
<path d="M3.44828 55.1724H0V58.6207H3.44828V55.1724Z" fill="#1D2B3F"/>
<path d="M10.3448 55.1724H6.89655V58.6207H10.3448V55.1724Z" fill="#1D2B3F"/>
<path d="M13.7931 55.1724H10.3448V58.6207H13.7931V55.1724Z" fill="#1D2B3F"/>
<path d="M20.6897 55.1724H17.2414V58.6207H20.6897V55.1724Z" fill="#1D2B3F"/>
<path d="M24.1379 55.1724H20.6897V58.6207H24.1379V55.1724Z" fill="#1D2B3F"/>
<path d="M75.8621 55.1724H72.4138V58.6207H75.8621V55.1724Z" fill="#1D2B3F"/>
<path d="M89.6552 55.1724H86.2069V58.6207H89.6552V55.1724Z" fill="#1D2B3F"/>
<path d="M93.1034 55.1724H89.6552V58.6207H93.1034V55.1724Z" fill="#1D2B3F"/>
<path d="M96.5517 55.1724H93.1034V58.6207H96.5517V55.1724Z" fill="#1D2B3F"/>
<path d="M3.44828 58.6207H0V62.069H3.44828V58.6207Z" fill="#1D2B3F"/>
<path d="M13.7931 58.6207H10.3448V62.069H13.7931V58.6207Z" fill="#1D2B3F"/>
<path d="M93.1034 58.6207H89.6552V62.069H93.1034V58.6207Z" fill="#1D2B3F"/>
<path d="M100 58.6207H96.5517V62.069H100V58.6207Z" fill="#1D2B3F"/>
<path d="M3.44828 62.069H0V65.5172H3.44828V62.069Z" fill="#1D2B3F"/>
<path d="M17.2414 62.069H13.7931V65.5172H17.2414V62.069Z" fill="#1D2B3F"/>
<path d="M24.1379 62.069H20.6897V65.5172H24.1379V62.069Z" fill="#1D2B3F"/>
<path d="M75.8621 62.069H72.4138V65.5172H75.8621V62.069Z" fill="#1D2B3F"/>
<path d="M93.1034 62.069H89.6552V65.5172H93.1034V62.069Z" fill="#1D2B3F"/>
<path d="M100 62.069H96.5517V65.5172H100V62.069Z" fill="#1D2B3F"/>
<path d="M3.44828 65.5172H0V68.9655H3.44828V65.5172Z" fill="#1D2B3F"/>
<path d="M10.3448 65.5172H6.89655V68.9655H10.3448V65.5172Z" fill="#1D2B3F"/>
<path d="M13.7931 65.5172H10.3448V68.9655H13.7931V65.5172Z" fill="#1D2B3F"/>
<path d="M17.2414 65.5172H13.7931V68.9655H17.2414V65.5172Z" fill="#1D2B3F"/>
<path d="M27.5862 65.5172H24.1379V68.9655H27.5862V65.5172Z" fill="#1D2B3F"/>
<path d="M79.3103 65.5172H75.8621V68.9655H79.3103V65.5172Z" fill="#1D2B3F"/>
<path d="M82.7586 65.5172H79.3103V68.9655H82.7586V65.5172Z" fill="#1D2B3F"/>
<path d="M89.6552 65.5172H86.2069V68.9655H89.6552V65.5172Z" fill="#1D2B3F"/>
<path d="M93.1034 65.5172H89.6552V68.9655H93.1034V65.5172Z" fill="#1D2B3F"/>
<path d="M100 65.5172H96.5517V68.9655H100V65.5172Z" fill="#1D2B3F"/>
<path d="M3.44828 68.9655H0V72.4138H3.44828V68.9655Z" fill="#1D2B3F"/>
<path d="M10.3448 68.9655H6.89655V72.4138H10.3448V68.9655Z" fill="#1D2B3F"/>
<path d="M20.6897 68.9655H17.2414V72.4138H20.6897V68.9655Z" fill="#1D2B3F"/>
<path d="M24.1379 68.9655H20.6897V72.4138H24.1379V68.9655Z" fill="#1D2B3F"/>
<path d="M75.8621 68.9655H72.4138V72.4138H75.8621V68.9655Z" fill="#1D2B3F"/>
<path d="M79.3103 68.9655H75.8621V72.4138H79.3103V68.9655Z" fill="#1D2B3F"/>
<path d="M82.7586 68.9655H79.3103V72.4138H82.7586V68.9655Z" fill="#1D2B3F"/>
<path d="M86.2069 68.9655H82.7586V72.4138H86.2069V68.9655Z" fill="#1D2B3F"/>
<path d="M96.5517 68.9655H93.1034V72.4138H96.5517V68.9655Z" fill="#1D2B3F"/>
<path d="M86.2069 72.4138H82.7586V75.8621H86.2069V72.4138Z" fill="#1D2B3F"/>
<path d="M93.1034 72.4138H89.6552V75.8621H93.1034V72.4138Z" fill="#1D2B3F"/>
<path d="M100 72.4138H96.5517V75.8621H100V72.4138Z" fill="#1D2B3F"/>
<path d="M3.44828 75.8621H0V79.3103H3.44828V75.8621Z" fill="#1D2B3F"/>
<path d="M6.89655 75.8621H3.44828V79.3103H6.89655V75.8621Z" fill="#1D2B3F"/>
<path d="M10.3448 75.8621H6.89655V79.3103H10.3448V75.8621Z" fill="#1D2B3F"/>
<path d="M13.7931 75.8621H10.3448V79.3103H13.7931V75.8621Z" fill="#1D2B3F"/>
<path d="M17.2414 75.8621H13.7931V79.3103H17.2414V75.8621Z" fill="#1D2B3F"/>
<path d="M20.6897 75.8621H17.2414V79.3103H20.6897V75.8621Z" fill="#1D2B3F"/>
<path d="M24.1379 75.8621H20.6897V79.3103H24.1379V75.8621Z" fill="#1D2B3F"/>
<path d="M79.3103 75.8621H75.8621V79.3103H79.3103V75.8621Z" fill="#1D2B3F"/>
<path d="M86.2069 75.8621H82.7586V79.3103H86.2069V75.8621Z" fill="#1D2B3F"/>
<path d="M93.1034 75.8621H89.6552V79.3103H93.1034V75.8621Z" fill="#1D2B3F"/>
<path d="M96.5517 75.8621H93.1034V79.3103H96.5517V75.8621Z" fill="#1D2B3F"/>
<path d="M100 75.8621H96.5517V79.3103H100V75.8621Z" fill="#1D2B3F"/>
<path d="M3.44828 79.3103H0V82.7586H3.44828V79.3103Z" fill="#1D2B3F"/>
<path d="M24.1379 79.3103H20.6897V82.7586H24.1379V79.3103Z" fill="#1D2B3F"/>
<path d="M31.0345 79.3103H27.5862V82.7586H31.0345V79.3103Z" fill="#1D2B3F"/>
<path d="M34.4828 79.3103H31.0345V82.7586H34.4828V79.3103Z" fill="#1D2B3F"/>
<path d="M44.8276 79.3103H41.3793V82.7586H44.8276V79.3103Z" fill="#1D2B3F"/>
<path d="M48.2759 79.3103H44.8276V82.7586H48.2759V79.3103Z" fill="#1D2B3F"/>
<path d="M58.6207 79.3103H55.1724V82.7586H58.6207V79.3103Z" fill="#1D2B3F"/>
<path d="M62.069 79.3103H58.6207V82.7586H62.069V79.3103Z" fill="#1D2B3F"/>
<path d="M72.4138 79.3103H68.9655V82.7586H72.4138V79.3103Z" fill="#1D2B3F"/>
<path d="M86.2069 79.3103H82.7586V82.7586H86.2069V79.3103Z" fill="#1D2B3F"/>
<path d="M89.6552 79.3103H86.2069V82.7586H89.6552V79.3103Z" fill="#1D2B3F"/>
<path d="M93.1034 79.3103H89.6552V82.7586H93.1034V79.3103Z" fill="#1D2B3F"/>
<path d="M100 79.3103H96.5517V82.7586H100V79.3103Z" fill="#1D2B3F"/>
<path d="M3.44828 82.7586H0V86.2069H3.44828V82.7586Z" fill="#1D2B3F"/>
<path d="M10.3448 82.7586H6.89655V86.2069H10.3448V82.7586Z" fill="#1D2B3F"/>
<path d="M13.7931 82.7586H10.3448V86.2069H13.7931V82.7586Z" fill="#1D2B3F"/>
<path d="M17.2414 82.7586H13.7931V86.2069H17.2414V82.7586Z" fill="#1D2B3F"/>
<path d="M24.1379 82.7586H20.6897V86.2069H24.1379V82.7586Z" fill="#1D2B3F"/>
<path d="M31.0345 82.7586H27.5862V86.2069H31.0345V82.7586Z" fill="#1D2B3F"/>
<path d="M34.4828 82.7586H31.0345V86.2069H34.4828V82.7586Z" fill="#1D2B3F"/>
<path d="M41.3793 82.7586H37.931V86.2069H41.3793V82.7586Z" fill="#1D2B3F"/>
<path d="M48.2759 82.7586H44.8276V86.2069H48.2759V82.7586Z" fill="#1D2B3F"/>
<path d="M51.7241 82.7586H48.2759V86.2069H51.7241V82.7586Z" fill="#1D2B3F"/>
<path d="M55.1724 82.7586H51.7241V86.2069H55.1724V82.7586Z" fill="#1D2B3F"/>
<path d="M62.069 82.7586H58.6207V86.2069H62.069V82.7586Z" fill="#1D2B3F"/>
<path d="M65.5172 82.7586H62.069V86.2069H65.5172V82.7586Z" fill="#1D2B3F"/>
<path d="M72.4138 82.7586H68.9655V86.2069H72.4138V82.7586Z" fill="#1D2B3F"/>
<path d="M75.8621 82.7586H72.4138V86.2069H75.8621V82.7586Z" fill="#1D2B3F"/>
<path d="M79.3103 82.7586H75.8621V86.2069H79.3103V82.7586Z" fill="#1D2B3F"/>
<path d="M82.7586 82.7586H79.3103V86.2069H82.7586V82.7586Z" fill="#1D2B3F"/>
<path d="M86.2069 82.7586H82.7586V86.2069H86.2069V82.7586Z" fill="#1D2B3F"/>
<path d="M93.1034 82.7586H89.6552V86.2069H93.1034V82.7586Z" fill="#1D2B3F"/>
<path d="M100 82.7586H96.5517V86.2069H100V82.7586Z" fill="#1D2B3F"/>
<path d="M3.44828 86.2069H0V89.6552H3.44828V86.2069Z" fill="#1D2B3F"/>
<path d="M10.3448 86.2069H6.89655V89.6552H10.3448V86.2069Z" fill="#1D2B3F"/>
<path d="M13.7931 86.2069H10.3448V89.6552H13.7931V86.2069Z" fill="#1D2B3F"/>
<path d="M17.2414 86.2069H13.7931V89.6552H17.2414V86.2069Z" fill="#1D2B3F"/>
<path d="M24.1379 86.2069H20.6897V89.6552H24.1379V86.2069Z" fill="#1D2B3F"/>
<path d="M31.0345 86.2069H27.5862V89.6552H31.0345V86.2069Z" fill="#1D2B3F"/>
<path d="M41.3793 86.2069H37.931V89.6552H41.3793V86.2069Z" fill="#1D2B3F"/>
<path d="M44.8276 86.2069H41.3793V89.6552H44.8276V86.2069Z" fill="#1D2B3F"/>
<path d="M51.7241 86.2069H48.2759V89.6552H51.7241V86.2069Z" fill="#1D2B3F"/>
<path d="M58.6207 86.2069H55.1724V89.6552H58.6207V86.2069Z" fill="#1D2B3F"/>
<path d="M75.8621 86.2069H72.4138V89.6552H75.8621V86.2069Z" fill="#1D2B3F"/>
<path d="M79.3103 86.2069H75.8621V89.6552H79.3103V86.2069Z" fill="#1D2B3F"/>
<path d="M89.6552 86.2069H86.2069V89.6552H89.6552V86.2069Z" fill="#1D2B3F"/>
<path d="M93.1034 86.2069H89.6552V89.6552H93.1034V86.2069Z" fill="#1D2B3F"/>
<path d="M96.5517 86.2069H93.1034V89.6552H96.5517V86.2069Z" fill="#1D2B3F"/>
<path d="M3.44828 89.6552H0V93.1034H3.44828V89.6552Z" fill="#1D2B3F"/>
<path d="M10.3448 89.6552H6.89655V93.1034H10.3448V89.6552Z" fill="#1D2B3F"/>
<path d="M13.7931 89.6552H10.3448V93.1034H13.7931V89.6552Z" fill="#1D2B3F"/>
<path d="M17.2414 89.6552H13.7931V93.1034H17.2414V89.6552Z" fill="#1D2B3F"/>
<path d="M24.1379 89.6552H20.6897V93.1034H24.1379V89.6552Z" fill="#1D2B3F"/>
<path d="M31.0345 89.6552H27.5862V93.1034H31.0345V89.6552Z" fill="#1D2B3F"/>
<path d="M44.8276 89.6552H41.3793V93.1034H44.8276V89.6552Z" fill="#1D2B3F"/>
<path d="M51.7241 89.6552H48.2759V93.1034H51.7241V89.6552Z" fill="#1D2B3F"/>
<path d="M58.6207 89.6552H55.1724V93.1034H58.6207V89.6552Z" fill="#1D2B3F"/>
<path d="M62.069 89.6552H58.6207V93.1034H62.069V89.6552Z" fill="#1D2B3F"/>
<path d="M65.5172 89.6552H62.069V93.1034H65.5172V89.6552Z" fill="#1D2B3F"/>
<path d="M72.4138 89.6552H68.9655V93.1034H72.4138V89.6552Z" fill="#1D2B3F"/>
<path d="M75.8621 89.6552H72.4138V93.1034H75.8621V89.6552Z" fill="#1D2B3F"/>
<path d="M79.3103 89.6552H75.8621V93.1034H79.3103V89.6552Z" fill="#1D2B3F"/>
<path d="M86.2069 89.6552H82.7586V93.1034H86.2069V89.6552Z" fill="#1D2B3F"/>
<path d="M89.6552 89.6552H86.2069V93.1034H89.6552V89.6552Z" fill="#1D2B3F"/>
<path d="M93.1034 89.6552H89.6552V93.1034H93.1034V89.6552Z" fill="#1D2B3F"/>
<path d="M100 89.6552H96.5517V93.1034H100V89.6552Z" fill="#1D2B3F"/>
<path d="M3.44828 93.1034H0V96.5517H3.44828V93.1034Z" fill="#1D2B3F"/>
<path d="M24.1379 93.1034H20.6897V96.5517H24.1379V93.1034Z" fill="#1D2B3F"/>
<path d="M41.3793 93.1034H37.931V96.5517H41.3793V93.1034Z" fill="#1D2B3F"/>
<path d="M55.1724 93.1034H51.7241V96.5517H55.1724V93.1034Z" fill="#1D2B3F"/>
<path d="M68.9655 93.1034H65.5172V96.5517H68.9655V93.1034Z" fill="#1D2B3F"/>
<path d="M72.4138 93.1034H68.9655V96.5517H72.4138V93.1034Z" fill="#1D2B3F"/>
<path d="M75.8621 93.1034H72.4138V96.5517H75.8621V93.1034Z" fill="#1D2B3F"/>
<path d="M82.7586 93.1034H79.3103V96.5517H82.7586V93.1034Z" fill="#1D2B3F"/>
<path d="M89.6552 93.1034H86.2069V96.5517H89.6552V93.1034Z" fill="#1D2B3F"/>
<path d="M93.1034 93.1034H89.6552V96.5517H93.1034V93.1034Z" fill="#1D2B3F"/>
<path d="M96.5517 93.1034H93.1034V96.5517H96.5517V93.1034Z" fill="#1D2B3F"/>
<path d="M3.44828 96.5517H0V100H3.44828V96.5517Z" fill="#1D2B3F"/>
<path d="M6.89655 96.5517H3.44828V100H6.89655V96.5517Z" fill="#1D2B3F"/>
<path d="M10.3448 96.5517H6.89655V100H10.3448V96.5517Z" fill="#1D2B3F"/>
<path d="M13.7931 96.5517H10.3448V100H13.7931V96.5517Z" fill="#1D2B3F"/>
<path d="M17.2414 96.5517H13.7931V100H17.2414V96.5517Z" fill="#1D2B3F"/>
<path d="M20.6897 96.5517H17.2414V100H20.6897V96.5517Z" fill="#1D2B3F"/>
<path d="M24.1379 96.5517H20.6897V100H24.1379V96.5517Z" fill="#1D2B3F"/>
<path d="M34.4828 96.5517H31.0345V100H34.4828V96.5517Z" fill="#1D2B3F"/>
<path d="M48.2759 96.5517H44.8276V100H48.2759V96.5517Z" fill="#1D2B3F"/>
<path d="M62.069 96.5517H58.6207V100H62.069V96.5517Z" fill="#1D2B3F"/>
<path d="M72.4138 96.5517H68.9655V100H72.4138V96.5517Z" fill="#1D2B3F"/>
<path d="M75.8621 96.5517H72.4138V100H75.8621V96.5517Z" fill="#1D2B3F"/>
<path d="M82.7586 96.5517H79.3103V100H82.7586V96.5517Z" fill="#1D2B3F"/>
<path d="M89.6552 96.5517H86.2069V100H89.6552V96.5517Z" fill="#1D2B3F"/>
</svg>
